<svg width="37" height="37" viewBox="0 0 37 37" fill="none" xmlns="http://www.w3.org/2000/svg">
<path d="M11.386 7.61621C11.7391 7.53786 12.1061 7.55048 12.4534 7.65137C12.8005 7.75225 13.1173 7.93822 13.3733 8.19336L28.8059 23.625V23.624C29.0614 23.8803 29.248 24.1975 29.3489 24.5449C29.4496 24.8922 29.4615 25.2593 29.3831 25.6123C29.3045 25.9655 29.1382 26.2935 28.8997 26.5654C28.691 26.8033 28.4327 26.9917 28.1438 27.1182L28.0178 27.1689L3.7688 35.9873L3.76489 35.9883C3.52664 36.0767 3.27486 36.1221 3.02075 36.124C2.67725 36.1205 2.33928 36.0363 2.0354 35.876C1.73006 35.7149 1.46793 35.4826 1.27075 35.1992C1.07355 34.9157 0.947404 34.5885 0.902588 34.2461C0.86339 33.9464 0.887403 33.6424 0.9729 33.3535L1.01294 33.2314L9.82935 8.98047C9.95336 8.64084 10.161 8.33795 10.4329 8.09961C10.7049 7.86117 11.0328 7.69459 11.386 7.61621ZM4.97095 27.2881L2.61938 33.7393L2.2522 34.7461L3.26001 34.3809L9.71802 32.0361L10.4563 31.7676L9.90161 31.2119L5.79419 27.1055L5.2395 26.5508L4.97095 27.2881ZM8.1897 18.4189L5.97876 24.502L5.87036 24.8008L6.09497 25.0264L11.9739 30.9053L12.1995 31.1299L12.4983 31.0215L18.5803 28.8105L19.3186 28.543L18.7629 27.9873L9.01294 18.2363L8.45728 17.6816L8.1897 18.4189ZM11.387 9.60156L9.20337 15.627L9.09497 15.9258L9.32056 16.1504L21.0754 27.9053L21.3743 27.7959L27.386 25.5986L28.1223 25.3301L27.5686 24.7754L11.6555 8.8623L11.387 9.60156ZM31.2815 16.9668C31.5054 16.9669 31.7199 17.0556 31.8782 17.2139L34.5657 19.9023C34.644 19.9807 34.7059 20.0743 34.7483 20.1768C34.7906 20.2791 34.8128 20.3892 34.8127 20.5C34.8126 20.6106 34.7906 20.7201 34.7483 20.8223C34.7059 20.9244 34.6439 21.0175 34.5657 21.0957C34.4873 21.174 34.3937 21.2369 34.2913 21.2793C34.1889 21.3216 34.0788 21.3428 33.968 21.3428C33.8574 21.3427 33.748 21.3207 33.6458 21.2783C33.5434 21.2359 33.4497 21.1741 33.3713 21.0957L30.6838 18.4082C30.5255 18.2498 30.4368 18.0345 30.4368 17.8105C30.4368 17.5868 30.5257 17.3722 30.6838 17.2139C30.8422 17.0555 31.0575 16.9668 31.2815 16.9668ZM35.0452 10.293C35.2574 10.2222 35.4896 10.2389 35.6897 10.3389C35.8899 10.439 36.0418 10.6148 36.1125 10.8271C36.1832 11.0393 36.1675 11.2707 36.0676 11.4707C35.9675 11.6709 35.7917 11.8238 35.5793 11.8945L31.5481 13.2383C31.3358 13.309 31.1037 13.2925 30.9036 13.1924C30.7035 13.0923 30.5515 12.9164 30.4807 12.7041C30.4101 12.4919 30.4267 12.2606 30.5266 12.0605C30.6266 11.8605 30.8018 11.7075 31.0139 11.6367L35.0452 10.293ZM31.2844 2.18262C31.5082 2.18347 31.7225 2.27287 31.8801 2.43164C32.0377 2.59045 32.1261 2.80555 32.1252 3.0293V3.03125C32.1252 4.01467 31.796 5.24522 31.0247 6.21875C30.2676 7.17408 29.0673 7.90618 27.2502 7.90625C26.6327 7.90625 26.0838 8.0114 25.6145 8.25977C25.1392 8.5113 24.7802 8.8911 24.5168 9.37988L24.511 9.3916C24.245 9.91639 24.0921 10.4915 24.0627 11.0791V11.1016C24.0623 11.2124 24.0401 11.3226 23.9973 11.4248C23.9545 11.527 23.8914 11.6192 23.8127 11.6973C23.7341 11.7753 23.6409 11.8379 23.5383 11.8799C23.4359 11.9218 23.3257 11.9428 23.2151 11.9424C23.1044 11.9419 22.9949 11.9197 22.8928 11.877C22.7907 11.8342 22.6974 11.772 22.6194 11.6934C22.5414 11.6148 22.4797 11.5214 22.4377 11.4189C22.3965 11.3183 22.3756 11.2104 22.3752 11.1016C22.3993 10.2681 22.6007 9.44925 22.967 8.7002C23.7638 7.10838 25.2592 6.21875 27.2502 6.21875C27.8676 6.21872 28.4159 6.11344 28.885 5.86523C29.3602 5.61373 29.7194 5.23382 29.9827 4.74512L29.9885 4.7334C30.2545 4.20856 30.4074 3.63357 30.4368 3.0459L30.4377 3.03418V3.02344C30.4386 2.79977 30.5281 2.58535 30.6868 2.42773C30.8456 2.27009 31.0606 2.18178 31.2844 2.18262ZM19.1877 0.84375C19.4114 0.843821 19.6263 0.932649 19.7844 1.09082C19.9426 1.24904 20.0315 1.46379 20.0315 1.6875V5.71875C20.0315 5.94246 19.9426 6.15721 19.7844 6.31543C19.6263 6.4736 19.4114 6.56243 19.1877 6.5625C18.964 6.5625 18.7493 6.47358 18.5911 6.31543C18.4328 6.1572 18.344 5.94253 18.344 5.71875V1.6875C18.344 1.46372 18.4328 1.24905 18.5911 1.09082C18.7493 0.932671 18.964 0.84375 19.1877 0.84375Z" fill="#1E1E1E" stroke="#E6E6E6"/>
</svg>
