<svg width="41" height="34" viewBox="0 0 41 34" fill="none" xmlns="http://www.w3.org/2000/svg">
<path d="M20.1484 0.400391C20.7176 0.400391 21.2664 0.612247 21.6875 0.995117V0.994141C21.6921 0.998666 21.6964 1.00344 21.7012 1.00781V1.00879L35.1387 13.6865L35.1426 13.6904C35.3755 13.9047 35.5613 14.1653 35.6885 14.4551C35.8157 14.7449 35.8809 15.0585 35.8809 15.375V31.3037H38.9688C39.219 31.3037 39.4588 31.4031 39.6357 31.5801C39.8127 31.757 39.9121 31.9968 39.9121 32.2471C39.9121 32.4974 39.8127 32.7371 39.6357 32.9141C39.4588 33.091 39.219 33.1904 38.9688 33.1904H1.34375C1.09345 33.1904 0.853744 33.091 0.676758 32.9141C0.499794 32.7371 0.400391 32.4974 0.400391 32.2471C0.40041 31.9968 0.499787 31.757 0.676758 31.5801C0.853741 31.4031 1.09347 31.3037 1.34375 31.3037H4.43164V15.375C4.43159 15.0585 4.49683 14.7449 4.62402 14.4551C4.75121 14.1653 4.937 13.9047 5.16992 13.6904H5.1709L5.17383 13.6865L18.5967 1.00879L18.6045 1.00098L18.6143 0.990234C19.0346 0.610183 19.5816 0.400453 20.1484 0.400391ZM17.0684 31.3037H23.2441V22.4404H17.0684V31.3037ZM33.9951 15.1943L33.8643 15.0752L33.8516 15.0635L20.4307 2.39355L20.1562 2.13477L19.8818 2.39355L6.46777 15.0615L6.44922 15.0791L6.31836 15.1973V31.3037H15.1816V22.8408C15.1817 22.2342 15.4226 21.6526 15.8516 21.2236C16.2805 20.7947 16.8621 20.5537 17.4688 20.5537H22.8438C23.4504 20.5537 24.032 20.7947 24.4609 21.2236C24.8899 21.6526 25.1308 22.2342 25.1309 22.8408V31.3037H33.9951V15.1943Z" fill="#1E1E1E" stroke="#E6E6E6" stroke-width="0.8"/>
</svg>
