<svg width="35" height="34" viewBox="0 0 35 34" fill="none" xmlns="http://www.w3.org/2000/svg">
<path d="M17.4998 0.526688C20.0386 0.526688 22.5077 1.35994 24.5271 2.89876C26.5465 4.43762 28.005 6.59728 28.6785 9.04524C29.3519 11.4931 29.2036 14.0944 28.2556 16.4495C27.3076 18.8048 25.612 20.7836 23.4304 22.0824L22.4851 22.6458L23.531 22.9876C28.0125 24.452 31.8567 27.5419 34.3542 31.8597L34.3611 31.8704C34.42 31.9664 34.4594 32.0736 34.4763 32.1849C34.4932 32.2961 34.4873 32.4098 34.4597 32.5189C34.4321 32.6279 34.383 32.7309 34.3152 32.8206C34.2473 32.9104 34.1616 32.986 34.0642 33.0423C33.9667 33.0986 33.8586 33.1347 33.7468 33.1488C33.635 33.1628 33.5213 33.1549 33.4128 33.1243C33.3044 33.0938 33.203 33.0413 33.115 32.971C33.027 32.9007 32.9539 32.8131 32.9001 32.7142L32.8933 32.7025C29.6414 27.0827 23.8852 23.7191 17.4998 23.7191C11.3137 23.7192 5.71874 26.8762 2.4187 32.1829L2.1062 32.7025L2.09937 32.7142C2.0456 32.8132 1.97256 32.9007 1.88452 32.971C1.79652 33.0413 1.69507 33.0938 1.58667 33.1243C1.47845 33.1548 1.36522 33.1627 1.25366 33.1488C1.14187 33.1348 1.03384 33.0987 0.936279 33.0423C0.838713 32.986 0.753287 32.9105 0.685303 32.8206C0.617408 32.7308 0.568454 32.628 0.540771 32.5189C0.513143 32.4098 0.507255 32.2962 0.52417 32.1849C0.541121 32.0736 0.579564 31.9664 0.638428 31.8704H0.639404L0.645264 31.8597C3.1428 27.5402 6.98724 24.4504 11.4685 22.9876L12.5154 22.6458L11.5691 22.0824C9.38767 20.7836 7.69286 18.8047 6.74487 16.4495C5.79686 14.0943 5.64857 11.4932 6.32202 9.04524C6.99551 6.59728 8.45398 4.43762 10.4734 2.89876C12.4927 1.36013 14.9611 0.526744 17.4998 0.526688ZM19.4324 2.4095C17.5108 2.02731 15.5188 2.22322 13.7087 2.97298C11.8988 3.72277 10.3519 4.99246 9.26343 6.62141C8.17491 8.25049 7.59351 10.166 7.59351 12.1253L7.6062 12.6165C7.73006 15.064 8.75678 17.3863 10.4978 19.1273C12.2388 20.8683 14.5611 21.895 17.0085 22.0189L17.4998 22.0316C19.459 22.0316 21.3746 21.4502 23.0037 20.3616C24.6326 19.2732 25.9023 17.7263 26.6521 15.9163C27.4019 14.1063 27.5977 12.1143 27.2156 10.1927C26.8333 8.27109 25.89 6.50585 24.5046 5.12044C23.1192 3.73502 21.354 2.79173 19.4324 2.4095Z" fill="#1E1E1E" stroke="#E6E6E6"/>
</svg>
