<svg width="39" height="31" viewBox="0 0 39 31" fill="none" xmlns="http://www.w3.org/2000/svg">
<path d="M12.6182 1.21284C13.2585 1.21284 13.8928 1.33888 14.4844 1.58394C15.0759 1.829 15.6128 2.18879 16.0654 2.64156V2.64058C16.1437 2.71898 16.2057 2.81258 16.248 2.91499C16.2904 3.01742 16.3126 3.1274 16.3125 3.23824V7.93745H22.6875V3.23921C22.6879 3.0161 22.7769 2.80234 22.9346 2.64449C23.3871 2.19186 23.9243 1.83287 24.5156 1.58784C25.1072 1.34278 25.7415 1.21577 26.3818 1.21577C27.022 1.2158 27.6556 1.34286 28.2471 1.58784C28.8386 1.8329 29.3764 2.1917 29.8291 2.64449L29.8301 2.64546C29.9031 2.71829 29.962 2.80466 30.0029 2.89937L30.0039 2.9023L36.9893 18.7949L36.9951 18.8076L37.002 18.8203C37.143 19.0979 37.266 19.3845 37.3711 19.6777C37.7422 20.716 37.882 21.8229 37.7803 22.9209C37.6785 24.0187 37.3377 25.0808 36.7822 26.0332C36.2266 26.9856 35.4691 27.8056 34.5635 28.4345C33.6581 29.0633 32.6262 29.4867 31.54 29.6748C30.4536 29.8628 29.3387 29.8105 28.2744 29.5224C27.2101 29.2344 26.2213 28.7171 25.3779 28.0068C24.5348 27.2966 23.8573 26.4107 23.3926 25.4111C22.9278 24.4112 22.6869 23.3213 22.6875 22.2187V9.62495H16.3125V22.2187C16.3126 23.3212 16.0716 24.4106 15.6064 25.4101C15.1414 26.4095 14.4634 27.295 13.6201 28.0048C12.7767 28.7148 11.7879 29.2318 10.7236 29.5195C9.65942 29.8072 8.54522 29.8591 7.45898 29.6709C6.3729 29.4827 5.34083 29.0595 4.43555 28.4306C3.53016 27.8016 2.77319 26.9816 2.21777 26.0293C1.66235 25.0769 1.32142 24.0147 1.21973 22.9169C1.11806 21.8193 1.25796 20.7128 1.62891 19.6748C1.73398 19.3815 1.85695 19.095 1.99805 18.8173L2.00488 18.8046L2.01074 18.7919L8.99609 2.89839L8.99707 2.89546C9.038 2.80066 9.09677 2.71444 9.16992 2.64156H9.1709C9.6236 2.18875 10.1614 1.829 10.7529 1.58394C11.3443 1.33901 11.9781 1.21287 12.6182 1.21284ZM10.998 16.791C9.92458 16.3464 8.74309 16.2303 7.60352 16.457C6.46404 16.6837 5.41724 17.2429 4.5957 18.0644C3.77417 18.8859 3.21503 19.9328 2.98828 21.0722C2.76161 22.2118 2.87767 23.3933 3.32227 24.4668C3.76693 25.5403 4.52019 26.4579 5.48633 27.1035C6.45244 27.749 7.58809 28.0937 8.75 28.0937C10.3081 28.0937 11.8025 27.4748 12.9043 26.373C14.0061 25.2712 14.625 23.7768 14.625 22.2187C14.625 21.0568 14.2803 19.9211 13.6348 18.955C12.9892 17.9889 12.0716 17.2356 10.998 16.791ZM32.498 16.791C31.4246 16.3464 30.2431 16.2303 29.1035 16.457C27.964 16.6837 26.9172 17.2429 26.0957 18.0644C25.2742 18.8859 24.715 19.9328 24.4883 21.0722C24.2616 22.2118 24.3777 23.3933 24.8223 24.4668C25.2669 25.5403 26.0202 26.4579 26.9863 27.1035C27.9524 27.749 29.0881 28.0937 30.25 28.0937C31.8081 28.0937 33.3025 27.4748 34.4043 26.373C35.5061 25.2712 36.125 23.7768 36.125 22.2187C36.125 21.0568 35.7803 19.9211 35.1348 18.955C34.4892 17.9889 33.5716 17.2356 32.498 16.791ZM26.5488 2.90718C25.8552 2.87129 25.1684 3.06308 24.5938 3.45308L24.375 3.60152V17.3349L25.209 16.5859C26.1928 15.7021 27.3919 15.0919 28.6855 14.8173C29.9791 14.5429 31.3222 14.6134 32.5801 15.0214L33.6406 15.3652L33.1924 14.3447L28.5732 3.83296L28.5264 3.72652L28.4375 3.6523L28.2314 3.49312C27.7392 3.14295 27.1557 2.93864 26.5488 2.90718ZM14.625 3.60347L14.4062 3.45406C13.8316 3.06405 13.1448 2.87324 12.4512 2.90913C11.7575 2.9451 11.0939 3.20587 10.5625 3.65327L10.4736 3.72847L10.4268 3.83492L5.80762 14.3486L5.35938 15.3691L6.41992 15.0253C7.67769 14.6171 9.02085 14.546 10.3145 14.8203C11.6081 15.0945 12.8071 15.7043 13.791 16.5878L14.625 17.3369V3.60347Z" fill="#1E1E1E" stroke="#E6E6E6"/>
</svg>
